:SAMPLES-PER-SECOND 30
:FULLY-SPECIFIED
:DEGREES
331
root  4.54248 39.5772 7.78841 -101.467 -88.4954 103.981
RightUpLeg  -19.7399 -5.51098 -0.96038
RightLeg  15.8961 -6.68274 -1.94205
RightFoot  -1.99489 -1.63223 19.5754
RightToes  -5.8209e-011 0 -3.6325e-017
Spine  0.833971 -3.23139 -7.74613
Spine1  13.6377 -7.43323 13.3157
HEad  28.8988 5.55117 -4.4685
LeftShoulder1  0.843919 14.0462 18.7595
LeftArm  -59.3548 -5.93198 -16.7502
LeftForeArm  48.4356 -77.9982 -79.3015
LeftHand  -1.59677 -2.09256 24.714
RightShoulder  1.40286 -13.9633 -24.7164
RightArm  -68.5602 0.11309 14.3797
RightForeArm  95.0927 77.5805 117.18
RightHand  -5.16615 10.1679 -37.5096
LeftUpLeg  2.22668 1.82614 -1.94647
LeftLeg  27.9056 -6.28449 -3.28077
LeftFoot  3.39205 1.34585 -10.4774
LeftToes  6.82088e-011 -2.45093e-011 5.71991e-013
332
root  3.11091 38.7266 7.69156 -103.5 -88.8229 103.249
RightUpLeg  -20.3571 -6.03266 0.811664
RightLeg  23.4249 -10.1179 -4.89122
RightFoot  -4.11968 -0.699278 10.1636
RightToes  -5.8209e-011 0 -3.6325e-017
Spine  3.74465 -3.24728 -5.94591
Spine1  12.6127 -7.04491 12.6947
HEad  27.23 5.05531 -4.83417
LeftShoulder1  0.912081 12.6458 20.9361
LeftArm  -56.4963 -7.43793 -15.6984
LeftForeArm  -1.44934 -68.6842 -29.1489
LeftHand  -1.70638 -2.1646 26.0897
RightShoulder  1.51255 -13.5129 -26.581
RightArm  -67.8838 0.970846 13.5651
RightForeArm  57.7103 78.8733 83.8663
RightHand  -5.27594 10.2568 -38.0437
LeftUpLeg  1.64475 0.693598 -0.468189
LeftLeg  38.2138 -8.43811 -6.7617
LeftFoot  7.10152 3.00984 -18.5037
LeftToes  6.82088e-011 -2.45093e-011 5.71991e-013
333
root  1.66695 37.7046 7.67735 40.1057 -89.6219 -43.1754
RightUpLeg  -20.3507 -3.16004 3.13872
RightLeg  34.3413 -14.1155 -10.3931
RightFoot  -8.96373 -0.110549 3.31475
RightToes  -5.8209e-011 0 -3.6325e-017
Spine  6.4508 -3.38676 -1.64023
Spine1  12.2947 -6.07055 10.7018
HEad  24.5755 4.39073 -4.84155
LeftShoulder1  0.790759 11.6468 20.6514
LeftArm  -57.3063 -6.84595 -16.2335
LeftForeArm  12.2219 -72.2065 -42.4454
LeftHand  -1.65545 -2.25579 25.0779
RightShoulder  1.43271 -13.2217 -26.1808
RightArm  -70.9932 0.484421 14.4545
RightForeArm  83.3459 77.5719 110.904
RightHand  -5.21607 10.1837 -37.8068
LeftUpLeg  0.118792 -0.786775 2.2095
LeftLeg  49.742 -9.86551 -11.8734
LeftFoot  12.7969 5.01432 -23.6542
LeftToes  6.82088e-011 -2.45093e-011 5.71991e-013
334
root  0.160339 36.9805 7.75773 97.79 -87.1865 -102.523
RightUpLeg  -18.7926 -1.36429 5.59604
RightLeg  40.9949 -14.4863 -13.3446
RightFoot  -14.3291 0.00884121 3.51715
RightToes  -5.8209e-011 0 -3.6325e-017
Spine  6.84596 -3.74005 3.2639
Spine1  13.2088 -5.22338 8.77721
HEad  22.6945 3.87441 -4.58083
LeftShoulder1  0.585113 11.4368 18.0382
LeftArm  -59.976 -5.5716 -18.5146
LeftForeArm  90.082 -76.6058 -119.474
LeftHand  -1.3218 -2.18757 20.0079
RightShoulder  1.19726 -13.2177 -23.4919
RightArm  -75.1387 -0.272495 16.4435
RightForeArm  124.749 69.1099 148.739
RightHand  -4.98264 10.0301 -36.5663
LeftUpLeg  -2.8371 -2.97701 5.12261
LeftLeg  59.3263 -9.16443 -15.6115
LeftFoot  16.1699 5.44713 -22.4285
LeftToes  6.82088e-011 -2.45093e-011 5.71991e-013
335
root  -1.39955 36.9411 7.83254 83.6488 -85.8024 -89.0387
RightUpLeg  -15.3733 -3.04123 6.57091
RightLeg  41.0458 -12.895 -12.0753
RightFoot  -17.6817 0.185706 5.61164
RightToes  -5.8209e-011 0 -3.6325e-017
Spine  5.496 -3.80915 5.44688
Spine1  14.2773 -5.06396 8.69657
HEad  22.0215 3.69498 -4.36531
LeftShoulder1  0.412651 11.4431 15.5636
LeftArm  -59.7933 -6.18465 -20.4046
LeftForeArm  125.942 -66.0804 -154.717
LeftHand  -0.75547 -1.18385 13.7257
RightShoulder  0.919775 -12.9803 -20.5554
RightArm  -75.7364 0.474187 17.8423
RightForeArm  140.171 61.6907 159.242
RightHand  -4.67991 9.83764 -34.9154
LeftUpLeg  -6.7428 -5.15044 6.83852
LeftLeg  64.6621 -6.18031 -13.3033
LeftFoot  14.5587 4.06435 -17.8587
LeftToes  6.82088e-011 -2.45093e-011 5.71991e-013
336
root  -2.95709 37.4056 7.83395 85.4451 -86.2182 -91.2762
RightUpLeg  -10.6711 -5.71068 5.47013
RightLeg  37.6705 -11.6876 -9.80512
RightFoot  -17.9266 0.224141 5.96545
RightToes  -5.8209e-011 0 -3.6325e-017
Spine  4.13671 -3.19081 4.09602
Spine1  14.1891 -4.94763 10.056
HEad  21.8704 3.69016 -4.33242
LeftShoulder1  0.398826 11.4109 15.3875
LeftArm  -56.6733 -9.89877 -19.2634
LeftForeArm  113.707 -71.5346 -140.132
LeftHand  -0.896973 -1.83405 14.319
RightShoulder  0.769794 -12.2801 -19.532
RightArm  -71.5175 3.20668 17.531
RightForeArm  137.969 65.5719 154.387
RightHand  -4.6668 9.81207 -34.8712
LeftUpLeg  -10.0854 -5.46974 6.94694
LeftLeg  65.1066 -2.58265 -5.54143
LeftFoot  9.35091 2.57479 -14.4096
LeftToes  6.82088e-011 -2.45093e-011 5.71991e-013
337
root  -4.48115 38.1005 7.82609 116.774 -87.196 -122.99
RightUpLeg  -6.03358 -6.16358 3.29655
RightLeg  33.972 -11.266 -8.32225
RightFoot  -15.6139 0.134979 6.57672
RightToes  -5.8209e-011 0 -3.6325e-017
Spine  3.19819 -1.92335 1.71584
Spine1  12.958 -3.97149 10.9327
HEad  21.6555 3.65371 -4.47477
LeftShoulder1  0.528398 11.1586 17.5156
LeftArm  -52.2472 -15.114 -16.112
LeftForeArm  36.2646 -76.8593 -61.523
LeftHand  -1.50879 -3.20255 20.5141
RightShoulder  0.774747 -11.3536 -20.767
RightArm  -65.8694 6.36535 16.3475
RightForeArm  112.23 75.8998 128.831
RightHand  -4.87962 10.0324 -35.8671
LeftUpLeg  -11.7913 -3.48782 5.95418
LeftLeg  60.2685 1.17638 2.65827
LeftFoot  4.85455 1.8414 -13.1211
LeftToes  6.82088e-011 -2.45093e-011 5.71991e-013
338
root  -6.02586 39.0056 7.8731 168.004 -86.4355 -174.225
RightUpLeg  -2.1368 -5.15605 0.695831
RightLeg  30.0947 -10.7399 -6.91592
RightFoot  -10.7914 -0.131057 9.41342
RightToes  -5.8209e-011 0 -3.6325e-017
Spine  2.16806 -0.487229 0.00241278
Spine1  11.2375 -2.44323 10.4571
HEad  20.9934 3.60842 -4.84154
LeftShoulder1  0.667743 10.6042 20.3325
LeftArm  -47.439 -18.7399 -14.2859
LeftForeArm  -5.30969 -62.8925 -22.0986
LeftHand  -1.83591 -3.03661 25.252
RightShoulder  0.820565 -10.6043 -22.6252
RightArm  -61.9208 8.33003 15.7661
RightForeArm  59.3088 79.0212 76.1305
RightHand  -5.03759 10.2767 -36.4097
LeftUpLeg  -11.6971 -1.15113 4.14016
LeftLeg  50.0458 5.6141 7.55264
LeftFoot  2.73174 1.34736 -10.9998
LeftToes  6.82088e-011 -2.45093e-011 5.71991e-013
339
root  -7.59918 39.9676 7.97331 -169.694 -84.7533 164.018
RightUpLeg  0.651852 -5.83733 -2.40406
RightLeg  26.409 -9.36717 -5.26162
RightFoot  -3.7088 -0.8359 12.2338
RightToes  -5.8209e-011 0 -3.6325e-017
Spine  1.1041 0.499727 -1.26741
Spine1  9.30164 -1.28063 9.42187
HEad  19.4064 3.78636 -5.44478
LeftShoulder1  0.760995 10.3802 22.1855
LeftArm  -45.4229 -18.9584 -14.9463
LeftForeArm  -8.85891 -58.4081 -19.1973
LeftHand  -1.8369 -2.70821 26.1931
RightShoulder  0.850772 -10.4355 -23.4332
RightArm  -61.0322 8.57146 16.0224
RightForeArm  50.2211 78.2063 66.2697
RightHand  -5.05637 10.3249 -36.4305
LeftUpLeg  -10.2309 -0.496903 1.90659
LeftLeg  35.4124 8.90844 7.24248
LeftFoot  0.810241 0.98839 -9.40328
LeftToes  6.82088e-011 -2.45093e-011 5.71991e-013
340
root  -9.16319 40.6562 8.09839 -159.894 -83.2716 155.118
RightUpLeg  1.77643 -7.8588 -5.45874
RightLeg  25.0877 -7.85696 -4.21674
RightFoot  3.4997 -1.73448 13.4646
RightToes  -5.8209e-011 0 -3.6325e-017
Spine  0.171972 1.01125 -2.33869
Spine1  7.46299 -0.6433 8.56573
HEad  16.8008 4.37136 -6.05676
LeftShoulder1  0.842674 11.1004 22.2478
LeftArm  -47.9238 -16.5344 -16.0869
LeftForeArm  -0.567852 -65.3395 -26.6939
LeftHand  -1.70519 -2.64807 24.5213
RightShoulder  0.863159 -10.764 -23.0122
RightArm  -63.0102 7.56551 16.0278
RightForeArm  83.8266 78.8166 100.513
RightHand  -4.92421 10.1325 -35.9535
LeftUpLeg  -8.2937 -0.881876 0.0850157
LeftLeg  19.3222 8.4933 3.61738
LeftFoot  0.885779 1.27793 -11.7708
LeftToes  6.82088e-011 -2.45093e-011 5.71991e-013
341
root  -10.6863 40.8905 8.23016 -157.278 -81.5027 153.299
RightUpLeg  1.19775 -8.22492 -7.68172
RightLeg  27.3819 -7.37062 -4.36568
RightFoot  8.34768 -2.68724 15.7144
RightToes  -5.8209e-011 0 -3.6325e-017
Spine  -0.639302 1.44202 -3.14041
Spine1  6.2941 -0.112302 7.65473
HEad  13.7525 5.28486 -6.30456
LeftShoulder1  0.856103 12.1546 20.8687
LeftArm  -52.8984 -13.31 -15.2761
LeftForeArm  23.8099 -75.8375 -53.9814
LeftHand  -1.38733 -2.03004 21.7178
RightShoulder  0.830103 -10.8849 -22.2859
RightArm  -66.5793 5.79466 14.8169
RightForeArm  118.827 73.8842 137.949
RightHand  -4.74849 9.84505 -35.3708
LeftUpLeg  -7.17369 -0.89527 -0.997383
LeftLeg  7.46223 6.84757 0.758971
LeftFoot  5.57897 2.17697 -14.8711
LeftToes  6.82088e-011 -2.45093e-011 5.71991e-013
342
root  -12.1066 40.649 8.37355 -157.666 -79.9476 153.599
RightUpLeg  -0.201897 -6.92308 -9.32581
RightLeg  33.0288 -7.35346 -5.3698
RightFoot  10.7984 -3.90728 20.1711
RightToes  -5.8209e-011 0 -3.6325e-017
Spine  -0.326924 1.77345 -3.95618
Spine1  5.47722 0.276212 6.6209
HEad  10.8882 6.31233 -6.07922
LeftShoulder1  0.771127 12.4243 19.4445
LeftArm  -58.7876 -10.6765 -12.6447
LeftForeArm  72.7454 -77.9216 -108.176
LeftHand  -1.12951 -1.10654 20.2428
RightShoulder  0.777606 -10.4575 -22.2234
RightArm  -70.4904 3.61028 12.627
RightForeArm  130.361 67.7513 151.568
RightHand  -4.6663 9.65081 -35.2185
LeftUpLeg  -7.84252 -0.756011 -1.73934
LeftLeg  5.23374 6.37441 -0.646352
LeftFoot  10.0172 2.46327 -13.3755
LeftToes  6.82088e-011 -2.45093e-011 5.71991e-013
343
root  -13.396 39.9597 8.54036 -157.649 -79.6094 151.911
RightUpLeg  -1.21173 -5.86052 -11.0059
RightLeg  41.2922 -6.71587 -6.55749
RightFoot  13.0277 -5.07383 23.6326
RightToes  -5.8209e-011 0 -3.6325e-017
Spine  2.61876 1.77195 -5.22436
Spine1  3.77988 0.0712342 6.2554
HEad  8.40303 7.43598 -5.57259
LeftShoulder1  0.701895 11.9974 19.0326
LeftArm  -64.6773 -9.47474 -10.5276
LeftForeArm  96.6806 -73.3284 -136.181
LeftHand  -0.990949 -0.272683 20.3287
RightShoulder  0.772121 -10.0229 -22.952
RightArm  -73.3958 1.98343 10.5367
RightForeArm  133.393 64.5752 155.538
RightHand  -4.69864 9.61885 -35.5145
LeftUpLeg  -9.17787 1.07567 -3.20718
LeftLeg  12.1506 4.0808 -0.23914
LeftFoot  7.47522 1.36393 -8.28281
LeftToes  6.82088e-011 -2.45093e-011 5.71991e-013
